<?xml version="1.0" encoding="utf-8"?>
<!-- Generator: Adobe Illustrator 24.0.3, SVG Export Plug-In . SVG Version: 6.00 Build 0)  -->
<svg version="1.1" id="图层_1" xmlns="http://www.w3.org/2000/svg" xmlns:xlink="http://www.w3.org/1999/xlink" x="0px" y="0px"
	 viewBox="0 0 92.8 142.8" style="enable-background:new 0 0 92.8 142.8;" xml:space="preserve">
<style type="text/css">
	.st0{fill:#FF80AB;}
</style>
<path class="st0" d="M0,0v142.8h22.8c0,0,0.9-7,10.5-7.9c0,0,4.2-1.2,0-5.8c0,0-6.7-12.1,1.9-37.2c0,0-4.9-0.9-10.5,7.9
	c0,0-0.5,3.5-0.5,5.6c0,0-6.3,5.8-6.7-3.9c0,0,1.9-8.8,10-17c0,0,4-6.7,0.9-16.5c0,0-9.8-0.7-13.9-9.3c0,0-6.7-17.7-4.4-25.3
	c0,0-0.5-3.7,12.3-4c0,0,14-4.2,24.6,8.1c0,0,17.7,2.1,22.5,8.1c4.9,5.8,11.2,8.8,11.2,8.8s1.2,2.1-3.7,1.6c0,0-15.3-10.2-22.3-9.3
	c0,0-1.6,1.6,0,2.3c0,0,9.3-1.9,22.5,13c0,0-4.9,2.1-15.1-5.6c0,0-9.1-5.1-10.9-1.9c0,0,4.4,19.8,24.4,34.9c0,0,17.2-4.4,17.2-37.2
	S75.3,3.3,38.4,3.7V0H0z"/>
</svg>
